<svg xmlns="http://www.w3.org/2000/svg" width="480" height="528" viewBox="0 0 480 528">
  <defs>
    <marker id="arrow" markerWidth="10" markerHeight="7" refX="9" refY="3.5" orient="auto">
      <polygon points="0 0, 10 3.5, 0 7" fill="#22C55E" />
    </marker>
  </defs>
  <rect width="100%" height="100%" fill="#0F172A" />
  <path d="M 130 224 C 130 250, 240 410, 240 436" fill="none" stroke="#22C55E" stroke-width="1.5" marker-end="url(#arrow)" />
  <text x="191" y="330" fill="#94A3B8" font-family="monospace" font-size="11" dominant-baseline="middle">59</text>
  <path d="M 350 224 C 350 250, 240 278, 240 304" fill="none" stroke="#22C55E" stroke-width="1.5" marker-end="url(#arrow)" />
  <text x="301" y="264" fill="#94A3B8" font-family="monospace" font-size="11" dominant-baseline="middle">2</text>
  <path d="M 350 92 C 350 118, 240 410, 240 436" fill="none" stroke="#22C55E" stroke-width="1.5" marker-end="url(#arrow)" />
  <text x="301" y="264" fill="#94A3B8" font-family="monospace" font-size="11" dominant-baseline="middle">3</text>
  <path d="M 350 92 C 350 118, 130 146, 130 172" fill="none" stroke="#22C55E" stroke-width="1.5" marker-end="url(#arrow)" />
  <text x="246" y="132" fill="#94A3B8" font-family="monospace" font-size="11" dominant-baseline="middle">4</text>
  <path d="M 350 92 C 350 118, 350 146, 350 172" fill="none" stroke="#22C55E" stroke-width="1.5" marker-end="url(#arrow)" />
  <text x="356" y="132" fill="#94A3B8" font-family="monospace" font-size="11" dominant-baseline="middle">7</text>
  <path d="M 350 92 C 350 118, 240 278, 240 304" fill="none" stroke="#22C55E" stroke-width="1.5" marker-end="url(#arrow)" />
  <text x="301" y="198" fill="#94A3B8" font-family="monospace" font-size="11" dominant-baseline="middle">3</text>
  <path d="M 240 356 C 240 382, 240 410, 240 436" fill="none" stroke="#22C55E" stroke-width="1.5" marker-end="url(#arrow)" />
  <text x="246" y="396" fill="#94A3B8" font-family="monospace" font-size="11" dominant-baseline="middle">24</text>
  <rect x="150" y="436" width="180" height="52" rx="6" fill="#1E293B" stroke="#22C55E" stroke-width="1.5" />
  <text x="240" y="456" fill="#F8FAFC" font-family="monospace" font-size="13" font-weight="600" text-anchor="middle" dominant-baseline="middle">domain</text>
  <text x="240" y="472" fill="#94A3B8" font-family="monospace" font-size="10" text-anchor="middle" dominant-baseline="middle">18 files</text>
  <rect x="40" y="172" width="180" height="52" rx="6" fill="#1E293B" stroke="#22C55E" stroke-width="1.5" />
  <text x="130" y="192" fill="#F8FAFC" font-family="monospace" font-size="13" font-weight="600" text-anchor="middle" dominant-baseline="middle">infrastructure</text>
  <text x="130" y="208" fill="#94A3B8" font-family="monospace" font-size="10" text-anchor="middle" dominant-baseline="middle">23 files</text>
  <rect x="150" y="304" width="180" height="52" rx="6" fill="#1E293B" stroke="#22C55E" stroke-width="1.5" />
  <text x="240" y="324" fill="#F8FAFC" font-family="monospace" font-size="13" font-weight="600" text-anchor="middle" dominant-baseline="middle">usecase</text>
  <text x="240" y="340" fill="#94A3B8" font-family="monospace" font-size="10" text-anchor="middle" dominant-baseline="middle">5 files</text>
  <rect x="260" y="172" width="180" height="52" rx="6" fill="#1E293B" stroke="#22C55E" stroke-width="1.5" />
  <text x="350" y="192" fill="#F8FAFC" font-family="monospace" font-size="13" font-weight="600" text-anchor="middle" dominant-baseline="middle">presentation</text>
  <text x="350" y="208" fill="#94A3B8" font-family="monospace" font-size="10" text-anchor="middle" dominant-baseline="middle">8 files</text>
  <rect x="40" y="40" width="180" height="52" rx="6" fill="#1E293B" stroke="#22C55E" stroke-width="1.5" />
  <text x="130" y="60" fill="#F8FAFC" font-family="monospace" font-size="13" font-weight="600" text-anchor="middle" dominant-baseline="middle">entrypoint</text>
  <text x="130" y="76" fill="#94A3B8" font-family="monospace" font-size="10" text-anchor="middle" dominant-baseline="middle">1 file</text>
  <rect x="260" y="40" width="180" height="52" rx="6" fill="#1E293B" stroke="#22C55E" stroke-width="1.5" />
  <text x="350" y="60" fill="#F8FAFC" font-family="monospace" font-size="13" font-weight="600" text-anchor="middle" dominant-baseline="middle">runner</text>
  <text x="350" y="76" fill="#94A3B8" font-family="monospace" font-size="10" text-anchor="middle" dominant-baseline="middle">1 file</text>
</svg>
