<svg xmlns="http://www.w3.org/2000/svg" width="700" height="396" viewBox="0 0 700 396">
  <defs>
    <marker id="arrow" markerWidth="10" markerHeight="7" refX="9" refY="3.5" orient="auto">
      <polygon points="0 0, 10 3.5, 0 7" fill="#22C55E" />
    </marker>
  </defs>
  <rect width="100%" height="100%" fill="#0F172A" />
  <path d="M 130 92 C 130 118, 350 278, 350 304" fill="none" stroke="#22C55E" stroke-width="1.5" marker-end="url(#arrow)" />
  <text x="246" y="198" fill="#94A3B8" font-family="monospace" font-size="11" dominant-baseline="middle">30</text>
  <path d="M 570 92 C 570 118, 350 146, 350 172" fill="none" stroke="#22C55E" stroke-width="1.5" marker-end="url(#arrow)" />
  <text x="466" y="132" fill="#94A3B8" font-family="monospace" font-size="11" dominant-baseline="middle">2</text>
  <path d="M 350 224 C 350 250, 350 278, 350 304" fill="none" stroke="#22C55E" stroke-width="1.5" marker-end="url(#arrow)" />
  <text x="356" y="264" fill="#94A3B8" font-family="monospace" font-size="11" dominant-baseline="middle">15</text>
  <rect x="260" y="304" width="180" height="52" rx="6" fill="#1E293B" stroke="#22C55E" stroke-width="1.5" />
  <text x="350" y="324" fill="#F8FAFC" font-family="monospace" font-size="13" font-weight="600" text-anchor="middle" dominant-baseline="middle">domain</text>
  <text x="350" y="340" fill="#94A3B8" font-family="monospace" font-size="10" text-anchor="middle" dominant-baseline="middle">15 files</text>
  <rect x="40" y="40" width="180" height="52" rx="6" fill="#1E293B" stroke="#22C55E" stroke-width="1.5" />
  <text x="130" y="60" fill="#F8FAFC" font-family="monospace" font-size="13" font-weight="600" text-anchor="middle" dominant-baseline="middle">infrastructure</text>
  <text x="130" y="76" fill="#94A3B8" font-family="monospace" font-size="10" text-anchor="middle" dominant-baseline="middle">14 files</text>
  <rect x="260" y="172" width="180" height="52" rx="6" fill="#1E293B" stroke="#22C55E" stroke-width="1.5" />
  <text x="350" y="192" fill="#F8FAFC" font-family="monospace" font-size="13" font-weight="600" text-anchor="middle" dominant-baseline="middle">usecase</text>
  <text x="350" y="208" fill="#94A3B8" font-family="monospace" font-size="10" text-anchor="middle" dominant-baseline="middle">4 files</text>
  <rect x="480" y="40" width="180" height="52" rx="6" fill="#1E293B" stroke="#22C55E" stroke-width="1.5" />
  <text x="570" y="60" fill="#F8FAFC" font-family="monospace" font-size="13" font-weight="600" text-anchor="middle" dominant-baseline="middle">presentation</text>
  <text x="570" y="76" fill="#94A3B8" font-family="monospace" font-size="10" text-anchor="middle" dominant-baseline="middle">8 files</text>
  <rect x="260" y="40" width="180" height="52" rx="6" fill="#1E293B" stroke="#22C55E" stroke-width="1.5" />
  <text x="350" y="60" fill="#F8FAFC" font-family="monospace" font-size="13" font-weight="600" text-anchor="middle" dominant-baseline="middle">main</text>
  <text x="350" y="76" fill="#94A3B8" font-family="monospace" font-size="10" text-anchor="middle" dominant-baseline="middle">1 file</text>
</svg>
